<svg width="478" height="204" viewBox="0 0 478 204" fill="none" xmlns="http://www.w3.org/2000/svg">
<path d="M0 131.46V117.366L54.0287 46.7368H75.7967L22.5511 117.366L12.3718 114.233H99.2875V131.46H0ZM60.1362 156.36V131.46L60.7627 114.233V92.1521H79.8685V156.36H60.1362Z" fill="#36454F"/>
<path d="M278.815 199.371C268.649 202.205 257.855 203.483 246.739 202.945C244.326 202.833 241.943 202.637 239.582 202.354C239.328 202.322 239.075 202.291 238.829 202.261C219.995 199.846 202.877 192.318 188.819 181.162C188.071 180.572 187.337 179.973 186.609 179.365C186.598 179.354 186.59 179.35 186.575 179.332C169.665 163.763 153.339 144.001 137.669 119.502C135.37 115.897 132.693 108.837 133.393 101.757C134.069 94.9171 137.882 88.884 144.139 84.7479C144.408 91.4357 146.451 100.866 154.107 111.944C154.755 112.888 185.911 165.366 246.608 189.907C246.654 189.921 246.69 189.938 246.738 189.959C256.65 193.948 267.343 197.203 278.815 199.371Z" fill="url(#paint0_linear_1299_15393)"/>
<path d="M353.278 106.396C351.132 151.298 320.141 187.984 279.078 199.405C268.909 202.234 258.119 203.511 247.003 202.978C244.5 202.861 242.024 202.652 239.582 202.355C239.328 202.323 239.075 202.292 238.829 202.262C219.995 199.847 202.877 192.319 188.819 181.163C188.071 180.573 187.337 179.974 186.609 179.366C186.596 179.351 186.58 179.342 186.561 179.327C186.568 179.333 186.571 179.333 186.575 179.333C186.771 179.443 186.965 179.554 187.163 179.652C199.053 186.345 212.63 190.431 227.177 191.129C233.86 191.444 240.409 191.031 246.739 189.96C246.776 189.954 246.827 189.945 246.868 189.939C287.892 182.927 319.991 148.191 322.056 104.9C324.446 54.8969 285.845 12.4169 235.832 10.0293C221.041 9.32294 206.909 12.202 194.277 17.9021C211.946 5.71961 233.605 -0.987014 256.698 0.118093C312.713 2.79643 355.953 50.3742 353.278 106.396Z" fill="url(#paint1_linear_1299_15393)"/>
<path d="M176.24 113.004C184.914 102.704 187.847 93.5137 188.756 86.884C194.587 91.5943 198.072 97.9566 197.831 104.824C197.713 106.678 197.378 108.526 196.896 110.371C195.811 114.527 194.122 118.442 191.879 122.083C191.075 123.393 150.148 184.121 130.736 197.412C130.637 196.803 123.758 167.01 123.758 167.01C135.418 158.455 149.067 144.247 159.542 132.534C168.55 122.455 175.209 114.215 176.24 113.004Z" fill="url(#paint2_linear_1299_15393)"/>
<path d="M194.8 93.0568C194.237 91.2556 189.965 78.3058 188.465 73.5917C188.465 73.5917 188.527 73.7831 188.618 74.1452C188.566 73.9585 188.52 73.7784 188.465 73.5917C187.42 70.3064 186.077 67.3335 183.809 65.0351C181.433 62.6167 178.774 60.9449 175.795 59.9787C173.158 59.125 162.405 58.6109 159.699 59.2122C156.636 59.8858 153.833 61.3033 151.237 63.476C148.759 65.552 147.139 68.3777 145.783 71.5551C145.747 71.6564 145.709 71.7615 145.662 71.8637C145.739 71.6639 145.783 71.5551 145.783 71.5551C143.847 76.0984 138.357 88.5829 137.628 90.3306C137.447 90.7603 137.265 91.189 137.082 91.614C158.406 77.1069 175.082 77.878 195.222 94.3955C195.079 93.949 194.937 93.5071 194.8 93.0568Z" fill="url(#paint3_linear_1299_15393)"/>
<path d="M377.863 131.46V117.366L431.892 46.7367H453.66L400.414 117.366L390.235 114.233H477.151V131.46H377.863ZM438 156.36V131.46L438.626 114.233V92.1521H457.732V156.36H438Z" fill="#36454F"/>
<defs>
<linearGradient id="paint0_linear_1299_15393" x1="186.251" y1="145.202" x2="265.321" y2="220.4" gradientUnits="userSpaceOnUse">
<stop stop-color="#E82F8C"/>
<stop offset="0.4978" stop-color="#FF69B4"/>
<stop offset="1" stop-color="#E82F8C"/>
</linearGradient>
<linearGradient id="paint1_linear_1299_15393" x1="273.289" y1="146.704" x2="235.79" y2="1.91079" gradientUnits="userSpaceOnUse">
<stop stop-color="#E82F8C"/>
<stop offset="0.4978" stop-color="#FF69B4"/>
<stop offset="1" stop-color="#E82F8C"/>
</linearGradient>
<linearGradient id="paint2_linear_1299_15393" x1="185.892" y1="116.814" x2="130.587" y2="171.547" gradientUnits="userSpaceOnUse">
<stop stop-color="#E82F8C"/>
<stop offset="0.4978" stop-color="#FF69B4"/>
<stop offset="1" stop-color="#E82F8C"/>
</linearGradient>
<linearGradient id="paint3_linear_1299_15393" x1="137.891" y1="74.641" x2="196.031" y2="77.4173" gradientUnits="userSpaceOnUse">
<stop stop-color="#E82F8C"/>
<stop offset="0.4978" stop-color="#FF69B4"/>
<stop offset="1" stop-color="#E82F8C"/>
</linearGradient>
</defs>
</svg>
