<svg width="20" height="21" viewBox="0 0 20 21" fill="none" xmlns="http://www.w3.org/2000/svg">
<path d="M19.6411 12.564C19.2087 11.8914 18.7763 11.2428 18.3439 10.5701C18.2478 10.426 18.2478 10.3299 18.3439 10.1858C18.7763 9.53713 19.1847 8.88851 19.6171 8.23989C20.1216 7.47115 19.8574 6.72644 18.9925 6.41414C18.2718 6.14988 17.5512 5.86161 16.8305 5.59736C16.6863 5.54931 16.6143 5.45322 16.6143 5.28506C16.5902 4.4923 16.5422 3.69954 16.4941 2.93081C16.4461 2.09 15.7975 1.60954 14.9807 1.82575C14.212 2.01793 13.4432 2.23414 12.6985 2.45035C12.5303 2.49839 12.4343 2.45035 12.3141 2.33023C11.8337 1.70563 11.3292 1.10506 10.8487 0.504483C10.3202 -0.168161 9.50345 -0.168161 8.95092 0.504483C8.47046 1.10506 7.96598 1.70563 7.50954 2.30621C7.38943 2.47437 7.26931 2.49839 7.07713 2.45035C6.33241 2.23414 5.5877 2.04196 5.0592 1.89782C4.02621 1.65759 3.40161 2.06598 3.35356 2.93081C3.30552 3.72357 3.25747 4.51632 3.23345 5.3331C3.23345 5.50126 3.16138 5.57333 3.01724 5.6454C2.27253 5.93368 1.52782 6.22195 0.783105 6.51023C0.0143699 6.82253 -0.22586 7.56724 0.230575 8.26391C0.66299 8.93656 1.0954 9.58518 1.52782 10.2578C1.62391 10.402 1.62391 10.498 1.52782 10.6662C1.07138 11.3389 0.638965 12.0115 0.206551 12.7082C-0.201839 13.3568 0.0624115 14.1255 0.783101 14.4138C1.52782 14.7021 2.29655 14.9903 3.04126 15.2786C3.20942 15.3267 3.25747 15.4228 3.25747 15.5909C3.28149 16.3597 3.37758 17.1044 3.37758 17.8731C3.37758 18.6418 4.05022 19.3385 4.98712 19.0502C5.73183 18.81 6.47654 18.6418 7.22126 18.4256C7.3654 18.3776 7.46149 18.4016 7.55758 18.5457C8.06206 19.1703 8.54252 19.7709 9.047 20.3955C9.59953 21.0682 10.3923 21.0682 10.9208 20.3955C11.4253 19.7709 11.9057 19.1703 12.4102 18.5457C12.5063 18.4256 12.5784 18.3776 12.7465 18.4256C13.5153 18.6418 14.284 18.834 15.0527 19.0502C15.8455 19.2664 16.5182 18.786 16.5422 17.9692C16.5902 17.1764 16.6383 16.3837 16.6623 15.5669C16.6623 15.3747 16.7584 15.3026 16.9025 15.2546C17.6232 14.9903 18.3679 14.7021 19.0886 14.4138C19.8574 14.0294 20.0976 13.2607 19.6411 12.564ZM13.8997 8.62426L9.09506 13.4289C8.97495 13.549 8.80678 13.6451 8.63862 13.6691C8.59058 13.6691 8.51851 13.6931 8.47046 13.6931C8.25426 13.6931 8.01403 13.597 7.84587 13.4289L5.87598 11.459C5.53966 11.1226 5.53966 10.5701 5.87598 10.2338C6.2123 9.89747 6.76483 9.89747 7.10115 10.2338L8.44644 11.5791L12.6264 7.39908C12.9628 7.06276 13.5153 7.06276 13.8516 7.39908C14.236 7.7354 14.236 8.28793 13.8997 8.62426Z" fill="#008080"/>
</svg>
