<svg width="36" height="36" viewBox="0 0 36 36" fill="none" xmlns="http://www.w3.org/2000/svg">
<path d="M32.5442 11.4409L17.9188 4.88481C17.7876 4.82681 17.6376 4.82681 17.5065 4.88481L2.87983 11.4409C2.69827 11.5216 2.58228 11.7019 2.58228 11.9011V14.4228C2.58228 14.7014 2.80796 14.9271 3.0866 14.9271C3.36525 14.9271 3.59093 14.7014 3.59093 14.4228V12.2277L17.7121 5.89718L31.8334 12.2277V14.4228C31.8447 15.0847 32.8307 15.086 32.842 14.4228V11.9011C32.842 11.7019 32.7245 11.5216 32.5442 11.4409Z" fill="#008080"/>
<path d="M3.08634 29.5529C2.43325 29.5617 2.41559 30.5502 3.08634 30.5615H32.3371C33.0469 30.5414 32.9688 29.4621 32.2438 29.5529C32.4216 29.2944 32.3056 26.3718 32.3371 26.0224C32.3371 25.1878 31.6588 24.5094 30.8241 24.5094H26.7895V23.5008H27.7981C27.8095 24.164 28.7954 24.164 28.8068 23.5008H29.3111C29.6112 23.5071 29.8621 23.2158 29.8092 22.9195L28.8005 16.3634C28.7627 16.1175 28.5509 15.936 28.3025 15.936H24.2678C24.0195 15.936 23.8076 16.1175 23.7698 16.3634L22.7611 22.9195C22.7384 23.0645 22.7813 23.2133 22.8771 23.3242C22.973 23.4352 23.1129 23.4995 23.2604 23.4995H25.7821V24.5082H21.2433C20.4086 24.5082 19.7303 25.1865 19.7303 26.0211C19.7618 26.383 19.6433 29.2779 19.8236 29.5516H16.7043V28.954C17.3221 28.7384 17.7495 28.1256 17.713 27.441C18.2992 27.2317 18.7216 26.6769 18.7216 26.0213V25.517C18.7216 24.6243 18.3308 23.8224 17.713 23.2676V17.4478C17.7016 16.7858 16.7157 16.7846 16.7043 17.4478V18.2333C16.4067 18.0593 16.0651 17.9521 15.6956 17.9521L6.11226 17.9534C5.74285 17.9534 5.40117 18.0605 5.1036 18.2345V17.449C5.09226 16.7871 4.10631 16.7858 4.09495 17.449V23.2689C3.47713 23.8237 3.08629 24.6243 3.08629 25.5182V26.0226C3.08629 26.6795 3.50867 27.2342 4.09495 27.4422C4.0483 28.3072 4.73797 29.0511 5.60793 29.0485V29.5529L3.08634 29.5529ZM28.3028 25.5182H30.8244C31.1031 25.5182 31.3288 25.7439 31.3288 26.0226V27.0312H28.3028V25.5182ZM28.3028 28.0399H31.3288V29.0485C31.3288 29.3272 31.1031 29.5529 30.8244 29.5529H28.3028V28.0399ZM23.8469 22.4921L24.7005 16.9443H27.869L28.7225 22.4921H23.8469ZM20.7378 26.0226C20.7378 25.7439 20.9634 25.5182 21.2421 25.5182H27.294V29.5529H21.2421C20.9634 29.5529 20.7378 29.3272 20.7378 29.0485V26.0226ZM8.12969 29.553H6.61671V29.0487H8.12969V29.553ZM13.173 29.553H9.13835V29.0487H13.173V29.553ZM15.6946 29.553H14.1816V29.0487H15.6946V29.553ZM5.10388 19.9706C5.10388 19.4146 5.5565 18.962 6.11254 18.962H15.695C16.251 18.962 16.7036 19.4146 16.7036 19.9706V22.6688C16.5296 22.607 16.348 22.5616 16.1615 22.5326C16.3644 21.7585 15.7378 20.9692 14.9384 20.9793H12.4168C11.63 20.9705 11.016 21.7244 11.1812 22.4923H10.6264C10.7916 21.7244 10.1776 20.9705 9.39082 20.9793H6.86918C6.0698 20.9679 5.44318 21.7572 5.64617 22.5326C5.45956 22.5616 5.27802 22.607 5.10401 22.6688L5.10388 19.9706ZM15.1905 22.2401C15.1905 22.3788 15.077 22.4922 14.9383 22.4922H12.4167C12.278 22.4922 12.1645 22.3788 12.1645 22.2401C12.1645 22.1014 12.278 21.9879 12.4167 21.9879H14.9383C15.077 21.9879 15.1905 22.1014 15.1905 22.2401ZM9.64268 22.2401C9.64268 22.3788 9.52921 22.4922 9.39052 22.4922H6.86887C6.73018 22.4922 6.61671 22.3788 6.61671 22.2401C6.61671 22.1014 6.73018 21.9879 6.86887 21.9879H9.39052C9.52921 21.9879 9.64268 22.1014 9.64268 22.2401ZM4.59939 26.5268C4.32075 26.5268 4.09506 26.3011 4.09506 26.0225V25.5181C4.09506 24.4061 5.00034 23.5008 6.11238 23.5008H15.6947C16.8068 23.5008 17.712 24.4061 17.712 25.5181V26.0225C17.6982 26.6857 16.7173 26.6857 16.7034 26.0225V25.5181C16.7034 24.9621 16.2508 24.5095 15.6947 24.5095H6.11231C5.55628 24.5095 5.10366 24.9621 5.10366 25.5181V26.0225C5.10366 26.3011 4.87803 26.5268 4.59939 26.5268ZM5.10372 27.4421C5.69 27.2328 6.11238 26.6781 6.11238 26.0225V25.5181H15.6948V26.0225C15.6948 26.6794 16.1172 27.2341 16.7034 27.4421C16.74 27.7498 16.5194 28.0423 16.1991 28.0398H5.60837C5.28812 28.0423 5.06715 27.7498 5.10372 27.4421Z" fill="#008080"/>
</svg>
