<svg width="36" height="36" viewBox="0 0 36 36" fill="none" xmlns="http://www.w3.org/2000/svg">
<path d="M18.6416 2.58203C12.2669 2.58203 6.6826 6.83615 4.97063 12.951C4.77898 13.0595 4.59996 13.1919 4.45116 13.3671L3.25591 14.778C3.06426 15.0037 2.93188 15.2546 2.86252 15.5244C1.85638 19.4544 3.6064 24.3932 7.32062 28.1073C10.3365 31.1244 14.1543 32.8417 17.5838 32.8417C18.3907 32.8417 19.1762 32.7471 19.9251 32.5504C20.1911 32.4811 20.4395 32.35 20.6627 32.1596L22.0609 30.9769C22.2375 30.8281 22.3711 30.6453 22.4808 30.4512C28.5934 28.7402 32.8446 23.1572 32.8446 16.7851C32.8446 8.95399 26.4738 2.58315 18.6427 2.58315L18.6416 2.58203ZM20.0108 31.3906C19.9049 31.4801 19.7864 31.5444 19.6704 31.5747C16.0796 32.5127 11.513 30.8711 8.03549 27.3938C4.56829 23.9266 2.92152 19.3649 3.84206 15.7741C3.87232 15.6556 3.93662 15.5358 4.0274 15.4286L5.22265 14.0178C5.3916 13.8186 5.63493 13.7051 5.89592 13.7051C5.90979 13.7051 5.92492 13.7051 5.93879 13.7063C6.21617 13.7189 6.46455 13.8576 6.62216 14.0846L8.69747 17.0727C8.92568 17.4005 8.90425 17.8431 8.64578 18.1482L7.25887 19.7848C6.78226 20.3483 6.67385 21.1427 6.98401 21.8096C7.63459 23.2066 8.56255 24.5103 9.73892 25.688C10.9165 26.8656 12.219 27.7936 13.6122 28.4455C14.2791 28.7581 15.0747 28.651 15.6396 28.1719L17.2786 26.7824C17.5837 26.5252 18.025 26.5025 18.3541 26.7307L20.3903 28.1441L21.3435 28.8048C21.5704 28.9624 21.7091 29.212 21.7217 29.4882C21.7344 29.7643 21.6209 30.0253 21.4103 30.2043L20.0121 31.3883L20.0108 31.3906ZM18.929 25.9022C18.2255 25.4143 17.2799 25.4597 16.6268 26.0132L14.9877 27.4013C14.7217 27.627 14.3497 27.6762 14.0396 27.5312C12.7535 26.9285 11.5469 26.0687 10.4526 24.9742C9.35834 23.8798 8.49961 22.672 7.89819 21.3834C7.75319 21.072 7.80489 20.7 8.02805 20.4365L9.41371 18.8C9.96719 18.1469 10.0126 17.2 9.52466 16.4977L8.58156 15.1398C9.275 10.0133 13.66 6.16778 18.8634 6.16778C24.5913 6.16778 29.2528 10.8279 29.2528 16.5571C29.2528 21.7618 25.406 26.147 20.2781 26.839L18.929 25.9022ZM22.709 29.3252C22.6497 28.7805 22.3711 28.2926 21.9172 27.9774L21.4469 27.6508C26.5483 26.4757 30.2615 21.9116 30.2615 16.5569C30.2615 10.2716 25.1488 5.15919 18.8638 5.15919C13.509 5.15919 8.94603 8.87105 7.76986 13.9724L7.44961 13.511C7.13314 13.0545 6.64268 12.7759 6.09674 12.7179C7.84677 7.31152 12.8975 3.59224 18.6419 3.59224C25.9168 3.59224 31.8351 9.51056 31.8351 16.7855C31.8351 22.5298 28.1158 27.5783 22.7094 29.3267L22.709 29.3252Z" fill="#008080"/>
<path d="M25.6981 17.253V17.2525C25.2705 15.6156 23.8011 14.4679 22.1122 14.4388C22.1239 14.3334 22.1307 14.227 22.1307 14.1211C22.1307 13.3657 21.837 12.6556 21.3035 12.1227C20.2018 11.021 18.4085 11.021 17.3075 12.1227L12.4455 16.9852C11.3443 18.0864 11.3443 19.8785 12.4455 20.9803C12.979 21.5143 13.689 21.808 14.4439 21.808C15.1988 21.808 15.9088 21.5138 16.4423 20.9803L18.3701 19.0525C18.3919 19.1483 18.4166 19.2436 18.4463 19.3372V19.3377C18.4463 19.3383 18.4469 19.3383 18.4469 19.3388V19.3394C18.9417 20.9208 20.3886 21.9839 22.0484 21.9839C24.1286 21.9839 25.8215 20.2904 25.8215 18.2097C25.8204 17.8846 25.7795 17.563 25.6982 17.2531L25.6981 17.253ZM25.0604 17.1309L18.9207 18.8961C18.8871 18.742 18.8653 18.5846 18.8552 18.4243C18.8496 18.3537 18.8468 18.2819 18.8468 18.2097C18.8468 18.1912 18.849 18.1738 18.8496 18.1553C18.8608 18.1144 18.863 18.0718 18.8557 18.0303C18.8641 17.8852 18.8787 17.7417 18.9056 17.6022C19.1757 16.222 20.3469 15.1354 21.7933 15.0205C21.8723 15.0138 21.9558 15.0104 22.0477 15.0104C23.4083 15.0104 24.6103 15.8689 25.0604 17.1309ZM17.7131 12.5284C18.1524 12.0896 18.7291 11.87 19.3058 11.87C19.8824 11.87 20.4591 12.0896 20.8985 12.5284C21.3232 12.9532 21.5575 13.5186 21.5575 14.1211C21.5575 14.2382 21.5485 14.3559 21.53 14.4713C21.5031 14.4753 21.4768 14.4803 21.4499 14.4842C21.4241 14.4881 21.3983 14.4921 21.3731 14.4965C21.3401 14.5027 21.3076 14.5094 21.2745 14.5167C21.2498 14.5218 21.2252 14.5268 21.2005 14.5324C21.1669 14.5403 21.1338 14.5492 21.1008 14.5576C21.0778 14.5638 21.0543 14.5694 21.0307 14.5756C20.996 14.5857 20.9612 14.5963 20.9265 14.6075C20.9058 14.6142 20.885 14.6198 20.8643 14.6266C20.8234 14.64 20.7825 14.6551 20.7421 14.6703C20.7287 14.6753 20.7147 14.6798 20.7012 14.6848C20.648 14.7056 20.5953 14.7274 20.5426 14.7498C20.5236 14.7582 20.5056 14.7672 20.4866 14.7756C20.453 14.7908 20.4199 14.8059 20.3868 14.8221C20.365 14.8328 20.3437 14.8446 20.3224 14.8558C20.2933 14.8709 20.2641 14.886 20.2355 14.9017C20.2131 14.914 20.1907 14.9275 20.1683 14.9404C20.1414 14.9561 20.1145 14.9712 20.0882 14.9874C20.0657 15.0015 20.0433 15.016 20.0209 15.0306C19.9957 15.0468 19.9699 15.0631 19.9453 15.0799C19.9228 15.095 19.901 15.1113 19.8786 15.127C19.8545 15.1438 19.8304 15.1606 19.8068 15.1785C19.785 15.1948 19.7631 15.2116 19.7418 15.229C19.7189 15.2469 19.6953 15.2648 19.6729 15.2833C19.6516 15.3007 19.6309 15.3186 19.6101 15.336C19.5877 15.3551 19.5659 15.3741 19.544 15.3932C19.5233 15.4117 19.5037 15.4302 19.4829 15.4492C19.4616 15.4688 19.4403 15.4884 19.4196 15.5086C19.4 15.5277 19.3804 15.5478 19.3613 15.5675C19.3412 15.5882 19.321 15.6089 19.3008 15.6297C19.2818 15.6498 19.2633 15.67 19.2448 15.6907C19.2252 15.712 19.2061 15.7339 19.1871 15.7557C19.1691 15.7765 19.1517 15.7978 19.1338 15.8191C19.1153 15.8415 19.0974 15.8639 19.0795 15.8869C19.0626 15.9087 19.0458 15.9306 19.029 15.9524C19.0117 15.9754 18.9943 15.9989 18.9775 16.0225C18.9612 16.0449 18.9455 16.0673 18.9304 16.0903C18.9141 16.1144 18.8979 16.1385 18.8816 16.1631C18.8665 16.1861 18.8519 16.2091 18.8374 16.2326C18.8222 16.2573 18.8071 16.2825 18.792 16.3077C18.778 16.3313 18.7645 16.3554 18.7511 16.3789C18.7365 16.4047 18.7231 16.4304 18.709 16.4568C18.6962 16.4809 18.6838 16.505 18.6715 16.5291C18.658 16.5554 18.6452 16.5823 18.6323 16.6098C18.6205 16.6344 18.6093 16.6591 18.5981 16.6837C18.5858 16.7112 18.5745 16.7387 18.5628 16.7661C18.5521 16.7913 18.542 16.816 18.532 16.8412C18.5208 16.8692 18.5107 16.8978 18.5 16.9264C18.491 16.9516 18.4815 16.9768 18.4726 17.0026C18.4625 17.0317 18.4535 17.0609 18.4445 17.09C18.4367 17.1158 18.4283 17.141 18.421 17.1668C18.412 17.1971 18.4042 17.2273 18.3963 17.2576C18.3896 17.2828 18.3823 17.308 18.3767 17.3338C18.3694 17.3652 18.3627 17.396 18.356 17.4274C18.356 17.4279 18.356 17.4285 18.3554 17.4291L15.6986 14.6069C15.6879 14.5957 15.6767 14.5868 15.6649 14.5778L17.7131 12.5284ZM16.0363 20.5745C15.611 20.9998 15.0456 21.234 14.4437 21.234C13.8418 21.234 13.2764 20.9998 12.851 20.5745C11.9734 19.6969 11.9734 18.2691 12.851 17.391L15.2634 14.9785C15.269 14.9858 15.2735 14.9937 15.2802 15.0004L18.2732 18.1806C18.2732 18.1901 18.2726 18.1997 18.2726 18.2092C18.2726 18.2512 18.2738 18.2932 18.2749 18.3353L16.0363 20.5745ZM22.047 21.41C20.7385 21.41 19.5858 20.6311 19.0932 19.4436L25.2037 17.6868C25.2317 17.8583 25.2463 18.0331 25.2463 18.2096C25.2463 19.9738 23.8111 21.41 22.047 21.41Z" fill="#008080" stroke="#008080" stroke-width="0.322771"/>
</svg>
