<svg width="40" height="28" viewBox="0 0 40 28" fill="none" xmlns="http://www.w3.org/2000/svg">
<path d="M34 3.5L30.5882 9.33333C33.1765 9.33333 35.3922 10.2472 37.2353 12.075C39.0784 13.9028 40 16.1 40 18.6667C40 21.2333 39.0784 23.4306 37.2353 25.2583C35.3922 27.0861 33.1765 28 30.5882 28C28 28 25.7843 27.0861 23.9412 25.2583C22.098 23.4306 21.1765 21.2333 21.1765 18.6667C21.1765 17.7722 21.2843 16.9458 21.5 16.1875C21.7157 15.4292 22.0392 14.7 22.4706 14L29.9412 1.16667C30.1373 0.816668 30.4118 0.534723 30.7647 0.320833C31.1176 0.106945 31.5098 0 31.9412 0C32.8431 0 33.5196 0.388889 33.9706 1.16667C34.4216 1.94444 34.4314 2.72222 34 3.5ZM12.8235 3.5L9.41176 9.33333C12 9.33333 14.2157 10.2472 16.0588 12.075C17.902 13.9028 18.8235 16.1 18.8235 18.6667C18.8235 21.2333 17.902 23.4306 16.0588 25.2583C14.2157 27.0861 12 28 9.41176 28C6.82353 28 4.60784 27.0861 2.76471 25.2583C0.921566 23.4306 0 21.2333 0 18.6667C0 17.7722 0.107838 16.9458 0.323524 16.1875C0.539211 15.4292 0.862743 14.7 1.29411 14L8.7647 1.16667C8.96078 0.816668 9.23529 0.534723 9.58823 0.320833C9.94118 0.106945 10.3333 0 10.7647 0C11.6667 0 12.3431 0.388889 12.7941 1.16667C13.2451 1.94444 13.2549 2.72222 12.8235 3.5Z" fill="white"/>
</svg>
